# xmcd CD database file
#
# Track frame offsets:
#	150
#	40016
#	72094
#	99586
#	129915
#	147710
#	166086
#	184427
#	204182
#	228486
#	249387
#	288592
#	306819
#
# Disc length: 4432 seconds
#
# Revision: 0
# Processed by: cddbd v1.5.1PL0 Copyright (c) Steve Scherf et al.
# Submitted via: CDex 1.51
#
DISCID=b7114e0d
DTITLE=The Ronald Andersen Special Edition Band - Jazz Goes Crazy
DYEAR=1996
DGENRE=Jazz
TTITLE0=My Blue Heaven
TTITLE1=Lady Be Good
TTITLE2=Girl of My Dreams
TTITLE3=Avalon
TTITLE4=The Fishseller
TTITLE5=Nuages
TTITLE6=In the Night
TTITLE7=Airmail
TTITLE8=Out in the Cold
TTITLE9=Swing 42
TTITLE10=Runnig Wild and Artie Shaws Clarinet Concerto
TTITLE11=Hey Bartender
TTITLE12=Sweet Georgia Brown
EXTD=YEAR: 1996
EXTT0=
EXTT1=
EXTT2=
EXTT3=
EXTT4=
EXTT5=
EXTT6=
EXTT7=
EXTT8=
EXTT9=
EXTT10=
EXTT11=
EXTT12=
PLAYORDER=
